<?xml version="1.0" standalone="no"?>
<!DOCTYPE svg PUBLIC "-//W3C//DTD SVG 1.1//EN" "http://www.w3.org/Graphics/SVG/1.1/DTD/svg11.dtd" >
<svg xmlns="http://www.w3.org/2000/svg">
<metadata>
Created by FontForge 20120731 at Fri Nov 18 08:55:23 2016
 By admin
</metadata>
<defs>
<font id="iconfont" horiz-adv-x="1024" >
  <font-face 
    font-family="iconfont"
    font-weight="500"
    font-stretch="normal"
    units-per-em="1024"
    panose-1="2 0 6 3 0 0 0 0 0 0"
    ascent="896"
    descent="-128"
    x-height="792"
    bbox="-0.6 -128.902 1025.57 896.083"
    underline-thickness="0"
    underline-position="0"
    unicode-range="U+0078-E632"
  />
<missing-glyph 
 />
    <glyph glyph-name=".notdef" 
 />
    <glyph glyph-name=".notdef" 
 />
    <glyph glyph-name=".null" horiz-adv-x="0" 
 />
    <glyph glyph-name="nonmarkingreturn" horiz-adv-x="341" 
 />
    <glyph glyph-name="x" unicode="x" horiz-adv-x="1001" 
d="M281 543q-27 -1 -53 -1h-83q-18 0 -36.5 -6t-32.5 -18.5t-23 -32t-9 -45.5v-76h912v41q0 16 -0.5 30t-0.5 18q0 13 -5 29t-17 29.5t-31.5 22.5t-49.5 9h-133v-97h-438v97zM955 310v-52q0 -23 0.5 -52t0.5 -58t-10.5 -47.5t-26 -30t-33 -16t-31.5 -4.5q-14 -1 -29.5 -0.5
t-29.5 0.5h-32l-45 128h-439l-44 -128h-29h-34q-20 0 -45 1q-25 0 -41 9.5t-25.5 23t-13.5 29.5t-4 30v167h911zM163 247q-12 0 -21 -8.5t-9 -21.5t9 -21.5t21 -8.5q13 0 22 8.5t9 21.5t-9 21.5t-22 8.5zM316 123q-8 -26 -14 -48q-5 -19 -10.5 -37t-7.5 -25t-3 -15t1 -14.5
t9.5 -10.5t21.5 -4h37h67h81h80h64h36q23 0 34 12t2 38q-5 13 -9.5 30.5t-9.5 34.5q-5 19 -11 39h-368zM336 498v228q0 11 2.5 23t10 21.5t20.5 15.5t34 6h188q31 0 51.5 -14.5t20.5 -52.5v-227h-327z" />
    <glyph glyph-name="email" unicode="&#xe605;" horiz-adv-x="1025" 
d="M1025 584v198q0 20 -14.5 34t-34.5 14h-928q-20 0 -34 -14t-14 -34v-198v-2v-596q0 -20 14 -34t34 -14h928q20 0 34.5 14t14.5 34v596v2zM928 734v-123l-416 -238l-416 238v123h832zM96 34v466l392 -224q12 -6 24.5 -6t23.5 6l392 224v-466h-832z" />
    <glyph glyph-name="atm" unicode="&#xe606;" 
d="M512 -128q-104 0 -198.5 38t-163.5 102t-109.5 153t-40.5 186q0 109 49 205.5t137 164.5q-42 36 -90 57q-14 5 -22 17t-8 27q0 32 30 44q92 38 191.5 28t182.5 -66q22 2 42 2q104 0 199 -38t163.5 -102t109 -153t40.5 -186t-40.5 -186t-109 -153t-163.5 -102t-199 -38z
M241 800q30 -24 57 -55q15 -17 11 -39t-23 -34q-89 -52 -139.5 -137.5t-50.5 -183.5q0 -104 56 -192t151.5 -139.5t208.5 -51.5t209 51.5t151.5 139.5t55.5 192t-55.5 192t-151.5 139.5t-209 51.5q-23 0 -50 -3q-19 -2 -34 9q-86 64 -187 60zM384 384q0 -40 19 -68t45.5 -28
t45 28t18.5 68t-18.5 68t-45 28t-45.5 -28t-19 -68zM640 384v0q0 -40 19 -68t45.5 -28t45 28t18.5 68v0q0 40 -18.5 68t-45 28t-45.5 -28t-19 -68z" />
    <glyph glyph-name="calendar" unicode="&#xe607;" 
d="M976 763h-85v85q0 20 -14 34t-33.5 14t-34 -14t-14.5 -34v-85h-235v85q0 20 -14 34t-34 14t-34 -14t-14 -34v-85h-235v85q0 20 -14.5 34t-34 14t-33.5 -14t-14 -34v-85h-85q-20 0 -34 -14t-14 -34v-795q0 -20 14 -34t34 -14h928q20 0 34 14t14 34v795q0 20 -14 34t-34 14
zM928 -32h-832v699h832v-699zM479 469h66q20 0 34 14t14 33.5t-14 34t-34 14.5h-66q-20 0 -34 -14.5t-14 -34t14 -33.5t34 -14zM479 270h66q20 0 34 14t14 34t-14 34t-34 14h-66q-20 0 -34 -14t-14 -34t14 -34t34 -14zM479 71h66q20 0 34 14t14 34t-14 34t-34 14h-66
q-20 0 -34 -14t-14 -34t14 -34t34 -14zM214 469h66q20 0 34 14t14 33.5t-14 34t-34 14.5h-66q-20 0 -34 -14.5t-14 -34t14 -33.5t34 -14zM214 270h66q20 0 34 14t14 34t-14 34t-34 14h-66q-20 0 -34 -14t-14 -34t14 -34t34 -14zM214 71h66q20 0 34 14t14 34t-14 34t-34 14
h-66q-20 0 -34 -14t-14 -34t14 -34t34 -14zM744 469h66q20 0 34 14t14 33.5t-14 34t-34 14.5h-66q-20 0 -34 -14.5t-14 -34t14 -33.5t34 -14zM744 270h66q20 0 34 14t14 34t-14 34t-34 14h-66q-20 0 -34 -14t-14 -34t14 -34t34 -14z" />
    <glyph glyph-name="account" unicode="&#xe608;" 
d="M680 469q79 74 79 180q0 102 -72.5 174.5t-174.5 72.5t-174.5 -72.5t-72.5 -174.5q0 -106 79 -180q-152 -53 -248 -185t-96 -298v-66q0 -20 14 -34t34 -14t34 14t14 34v66q0 113 55.5 209t151.5 151.5t209 55.5t209 -55.5t151.5 -151.5t55.5 -209v-66q0 -20 14 -34
t34 -14t34 14t14 34v66q0 166 -96 298t-248 185zM361 649.5q0 62.5 44.5 106.5t106.5 44t106.5 -44t44.5 -106.5t-44.5 -107t-106.5 -44.5t-106.5 44.5t-44.5 107z" />
    <glyph glyph-name="favorite" unicode="&#xe609;" 
d="M799 -128q-12 0 -22 5l-265 139l-265 -139q-26 -13 -50 4t-19 46l50 318l-214 209q-21 21 -11.5 49t38.5 33l294 43l133 289q13 28 44 28v0q31 0 44 -28l133 -289l294 -43q30 -5 39 -33t-12 -49l-214 -209l50 -318q5 -29 -19 -46q-13 -9 -28 -9zM151 455l162 -159
q17 -17 13 -42l-39 -247l203 105q22 12 44 0l203 -105l-39 247q-4 25 13 42l162 159l-224 33q-26 4 -37 28l-100 217l-100 -217q-11 -24 -37 -28z" />
    <glyph glyph-name="success" unicode="&#xe60a;" 
d="M512 -128q-104 0 -199 40.5t-163.5 109t-109 163.5t-40.5 199t40.5 199t109 163.5t163.5 109t199 40.5t199 -40.5t163.5 -109t109 -163.5t40.5 -199t-40.5 -199t-109 -163.5t-163.5 -109t-199 -40.5zM512 800q-113 0 -209 -55.5t-151.5 -151.5t-55.5 -209t55.5 -209
t151.5 -151.5t209 -55.5t209 55.5t151.5 151.5t55.5 209t-55.5 209t-151.5 151.5t-209 55.5zM464 160v0q-20 0 -34 14l-128 128q-14 14 -14 34t14 34t34 14t34 -14l86 -86l191 302q11 17 30.5 21t36.5 -6.5t21 -30t-7 -36.5l-224 -352q-5 -8 -15 -14.5t-20 -7.5h-5z" />
    <glyph glyph-name="warning" unicode="&#xe60b;" 
d="M1008 121l-402 643q-15 24 -40 38t-53.5 14t-53.5 -14t-40 -38l-402 -643q-16 -26 -17 -56t13.5 -56t40.5 -41.5t56 -15.5h804q30 0 56 15.5t40.5 41.5t14 56t-16.5 56zM927 55.5q-4 -7.5 -13 -7.5h-804q-8 0 -12 7.5t0 14.5l402 643q4 7 12 7t12 -7l402 -643
q5 -7 1 -14.5zM512 272q20 0 34 14t14 34v182q0 20 -14 34t-34 14t-34 -14t-14 -34v-182q0 -20 14 -34t34 -14zM512 160zM448 159.5q0 -26.5 19 -45t45.5 -18.5t45 18.5t18.5 45t-18.5 45.5t-45 19t-45.5 -19t-19 -45.5z" />
    <glyph glyph-name="prompt" unicode="&#xe60c;" 
d="M512 896q-104 0 -199 -40.5t-163.5 -109t-109 -163.5t-40.5 -199t40.5 -199t109 -163.5t163.5 -109t199 -40.5t199 40.5t163.5 109t109 163.5t40.5 199t-40.5 199t-109 163.5t-163.5 109t-199 40.5zM512 -32q-113 0 -209 55.5t-151.5 151.5t-55.5 209t55.5 209
t151.5 151.5t209 55.5t209 -55.5t151.5 -151.5t55.5 -209t-55.5 -209t-151.5 -151.5t-209 -55.5zM512 502q-20 0 -34 -14t-14 -34v-310q0 -20 14 -34t34 -14t34 14t14 34v310q0 20 -14 34t-34 14zM448 613.5q0 -26.5 18.5 -45t45.5 -18.5t45.5 18.5t18.5 45t-18.5 45.5
t-45.5 19t-45.5 -19t-18.5 -45.5z" />
    <glyph glyph-name="error" unicode="&#xe60d;" 
d="M512 -128q-104 0 -199 40.5t-163.5 109t-109 163.5t-40.5 199t40.5 199t109 163.5t163.5 109t199 40.5t199 -40.5t163.5 -109t109 -163.5t40.5 -199t-40.5 -199t-109 -163.5t-163.5 -109t-199 -40.5zM512 800q-113 0 -209 -55.5t-151.5 -151.5t-55.5 -209t55.5 -209
t151.5 -151.5t209 -55.5t209 55.5t151.5 151.5t55.5 209t-55.5 209t-151.5 151.5t-209 55.5zM580 384l126 126q14 14 14 34t-14 34t-34 14t-34 -14l-126 -126l-126 126q-14 14 -34 14t-34 -14t-14 -34t14 -34l126 -126l-126 -126q-14 -14 -14 -34t14 -34t34 -14t34 14
l126 126l126 -126q14 -14 34 -14t34 14t14 34t-14 34z" />
    <glyph glyph-name="favorites-filling" unicode="&#xe60e;" 
d="M19 439l200 -196l-47 -297q-6 -39 26 -62t67 -5l247 129l247 -129q14 -7 30 -7q20 0 37 12q32 23 26 62l-47 297l200 196q28 28 16 65q-5 16 -20 28.5t-32 15.5l-274 41l-125 270q-8 17 -23.5 27t-34.5 10t-34.5 -10t-23.5 -27l-125 -270l-274 -41q-17 -3 -32 -15.5
t-20 -28.5q-12 -37 16 -65z" />
    <glyph glyph-name="arrow-right" unicode="&#xe610;" 
d="M265 -80q0 18 12 31l371 433l-371 433q-13 15 -11.5 34.5t16.5 32.5t35 11.5t33 -16.5l397 -464q12 -13 12 -31t-12 -31l-397 -464q-13 -15 -33 -16.5t-35 11.5q-17 14 -17 36z" />
    <glyph glyph-name="arrow-left" unicode="&#xe611;" 
d="M759 848q0 -18 -12 -31l-371 -433l371 -433q13 -15 11.5 -34.5t-16.5 -32.5t-35 -11.5t-33 16.5l-397 464q-12 13 -12 31t12 31l397 464q13 15 33 16.5t35 -11.5q17 -14 17 -36z" />
    <glyph glyph-name="arrow-up" unicode="&#xe612;" 
d="M976 137q-17 0 -31 12l-433 371l-433 -371q-15 -13 -34.5 -11.5t-32.5 16.5t-11.5 35t16.5 32l464 398q14 12 31.5 12t31.5 -12l464 -398q15 -12 16.5 -32t-11.5 -35q-14 -17 -37 -17z" />
    <glyph glyph-name="arrow-down" unicode="&#xe613;" 
d="M48 631q18 0 31 -12l433 -371l433 371q15 13 35 11.5t33 -16.5t11.5 -35t-16.5 -32l-464 -398q-14 -12 -31.5 -12t-31.5 12l-464 398q-15 12 -16.5 32t11.5 35q14 17 36 17v0z" />
    <glyph glyph-name="add" unicode="&#xe614;" 
d="M976 432h-416v416q0 20 -14 34t-34 14t-34 -14t-14 -34v-416h-416q-20 0 -34 -14t-14 -34t14 -34t34 -14h416v-416q0 -20 14 -34t34 -14t34 14t14 34v416h416q20 0 34 14t14 34t-14 34t-34 14z" />
    <glyph glyph-name="minus" unicode="&#xe615;" 
d="M977 336h-929q-20 0 -34 14t-14 34t14 34t34 14h929q19 0 33.5 -14t14.5 -34t-14.5 -34t-33.5 -14z" />
    <glyph glyph-name="arrow-double-left" unicode="&#xe616;" 
d="M512 -128q-22 0 -36 17l-398 464q-12 13 -12 31t12 31l398 464q13 15 32.5 16.5t34.5 -11.5t16.5 -32.5t-11.5 -34.5l-370 -433l370 -433q13 -15 11.5 -35t-16.5 -32q-13 -12 -31 -12v0zM910 -128q-22 0 -37 17l-397 464q-12 13 -12 31t12 31l397 464q13 15 33 16.5
t35 -11.5t16.5 -32.5t-11.5 -34.5l-371 -433l371 -433q13 -15 11.5 -35t-16.5 -32q-14 -12 -31 -12v0z" />
    <glyph glyph-name="arrow-double-right" unicode="&#xe617;" 
d="M512 -128q22 0 36 17l398 464q12 13 12 31t-12 31l-398 464q-13 15 -32.5 16.5t-34.5 -11.5t-16.5 -32.5t11.5 -34.5l370 -433l-370 -433q-13 -15 -11.5 -35t16.5 -32q13 -12 31 -12v0zM114 -128q22 0 37 17l397 464q12 13 12 31t-12 31l-397 464q-13 15 -33 16.5
t-35 -11.5t-16.5 -32.5t11.5 -34.5l371 -433l-371 -433q-13 -15 -11.5 -35t16.5 -32q14 -12 31 -12v0z" />
    <glyph glyph-name="close" unicode="&#xe618;" 
d="M580 384l430 430q14 14 14 34t-14 34t-34 14t-34 -14l-430 -430l-430 430q-14 14 -34 14t-34 -14t-14 -34t14 -34l430 -430l-430 -430q-14 -14 -14 -34t14 -34t34 -14t34 14l430 430l430 -430q14 -14 34 -14t34 14t14 34t-14 34z" />
    <glyph glyph-name="search" unicode="&#xe619;" 
d="M1010 -46l-186 186q104 128 104 292q0 94 -37 180t-99 148t-148 99t-180 37t-180 -37t-148 -99t-99 -148t-37 -180t37 -180t99 -148t148 -99t180 -37q164 0 292 104l186 -186q14 -14 34 -14t34 14t14 34t-14 34zM96 432q0 100 49.5 184.5t134 134t184.5 49.5t184.5 -49.5
t134 -134t49.5 -184.5t-49.5 -184.5t-134 -134t-184.5 -49.5t-184.5 49.5t-134 134t-49.5 184.5z" />
    <glyph glyph-name="arrow-down-filling" unicode="&#xe61a;" 
d="M16 597l448 -512q18 -21 48 -21t48 21l449 512q27 32 10 69q-7 16 -24 27t-34 11v0h-897v0q-17 0 -34 -11t-24 -27q-17 -37 10 -69z" />
    <glyph glyph-name="arrow-up-filling" unicode="&#xe61b;" 
d="M1009 171l-449 512q-18 21 -48 21t-48 -21l-448 -512q-27 -32 -10 -69q7 -16 24 -27t34 -11v0h897v0q17 0 34 11t24 27q17 37 -10 69z" />
    <glyph glyph-name="ascending" unicode="&#xe61c;" 
d="M750.5 543q-15.5 -12 -35 -10t-32.5 18l-124 158v-789q0 -20 -14 -34t-34 -14t-34 14t-14 34v928q0 15 9 27.5t23 17.5q8 3 16 3v0q23 0 38 -18l210 -268q12 -15 9.5 -35t-18 -32z" />
    <glyph glyph-name="descending" unicode="&#xe61d;" 
d="M269.5 225q15.5 12 35.5 10t32 -18l125 -158v789q0 20 14 34t33.5 14t34 -14t14.5 -34v-928q0 -15 -9 -27.5t-24 -17.5q-7 -3 -15 -3v0q-24 0 -38 18l-210 268q-13 15 -10.5 35t18 32z" />
    <glyph glyph-name="ashbin" unicode="&#xe61e;" 
d="M1023 781q0 20 -14 34t-34 14h-331v67h-265v-67h-331q-20 0 -34 -14t-14 -34v-199v0v0q0 -20 14 -34t34 -14h18v-614q0 -20 14 -34t34 -14h795q20 0 34 14t14 34v614h18q20 0 34 14t14 34v0v0v199zM96 733h831v-103h-18v0h-795v0h-18v103zM463 534v-566h-102v566h102z
M559 534h103v-566h-103v566zM162 534h103v-566h-103v566zM861 -32h-103v566h103v-566z" />
    <glyph glyph-name="box" unicode="&#xe61f;" 
d="M976 896h-928q-20 0 -34 -14t-14 -34v-928q0 -20 14 -34t34 -14h928q20 0 34 14t14 34v928q0 20 -14 34t-34 14zM928 800v-103h-832v103h832zM96 -32v633h832v-633h-832zM645 498h-266q-19 0 -33.5 -14t-14.5 -34t14.5 -34t33.5 -14h266q19 0 33.5 14t14.5 34t-14.5 34
t-33.5 14z" />
    <glyph glyph-name="cart" unicode="&#xe620;" 
d="M256 -32zM160 -31.5q0 -39.5 28 -68t67.5 -28.5t68 28.5t28.5 68t-28.5 67.5t-68 28t-67.5 -28t-28 -67.5zM767 -32zM671 -31.5q0 -39.5 28.5 -68t68 -28.5t67.5 28.5t28 68t-28 67.5t-67.5 28t-68 -28t-28.5 -67.5zM1014 611q-6 8 -17.5 14t-21.5 6v0h-747v217
q0 20 -14 34t-34 14h-132q-20 0 -34 -14t-14 -34t14 -34t34 -14h84v-614q0 -20 14.5 -34t33.5 -14h663q15 0 27.5 9t17.5 24l133 397q7 23 -7 43zM808 234h-580v301h681z" />
    <glyph glyph-name="clock" unicode="&#xe621;" 
d="M512 896q-104 0 -199 -40.5t-163.5 -109t-109 -163.5t-40.5 -199t40.5 -199t109 -163.5t163.5 -109t199 -40.5t199 40.5t163.5 109t109 163.5t40.5 199t-40.5 199t-109 163.5t-163.5 109t-199 40.5zM512 -32q-113 0 -209 55.5t-151.5 151.5t-55.5 209t55.5 209
t151.5 151.5t209 55.5t209 -55.5t151.5 -151.5t55.5 -209t-55.5 -209t-151.5 -151.5t-209 -55.5zM514 384l98 99q14 14 14 33.5t-14 34t-34 14.5t-34 -15l-132 -132q-14 -14 -14 -34t14 -34l199 -199q14 -14 33.5 -14t34 14t14.5 34t-14 34z" />
    <glyph glyph-name="cry" unicode="&#xe622;" 
d="M512 896q-104 0 -199 -40.5t-163.5 -109t-109 -163.5t-40.5 -199t40.5 -199t109 -163.5t163.5 -109t199 -40.5t199 40.5t163.5 109t109 163.5t40.5 199t-40.5 199t-109 163.5t-163.5 109t-199 40.5zM512 -32q-113 0 -209 55.5t-151.5 151.5t-55.5 209t55.5 209
t151.5 151.5t209 55.5t209 -55.5t151.5 -151.5t55.5 -209t-55.5 -209t-151.5 -151.5t-209 -55.5zM711 517zM647 516.5q0 -26.5 18.5 -45t45 -18.5t45.5 18.5t19 45t-19 45.5t-45.5 19t-45 -19t-18.5 -45.5zM313 517zM249 516.5q0 -26.5 18.5 -45t45 -18.5t45.5 18.5t19 45
t-19 45.5t-45.5 19t-45 -19t-18.5 -45.5zM512 329q-65 0 -121 -31.5t-90 -87.5q-10 -17 -5.5 -36t21.5 -29.5t36.5 -6t29.5 21.5q21 34 55 53.5t74 19.5t74 -19.5t55 -53.5q14 -23 41 -23q13 0 25 7q17 11 21.5 30t-5.5 36q-34 56 -90 87.5t-121 31.5z" />
    <glyph glyph-name="delete-filling" unicode="&#xe623;" 
d="M512 896q-104 0 -199 -40.5t-163.5 -109t-109 -163.5t-40.5 -199t40.5 -199t109 -163.5t163.5 -109t199 -40.5t199 40.5t163.5 109t109 163.5t40.5 199t-40.5 199t-109 163.5t-163.5 109t-199 40.5zM749 237q19 -19 19 -45.5t-18.5 -45t-45 -18.5t-45.5 19l-147 146
l-147 -146q-18 -19 -44.5 -19t-45.5 18.5t-19 45t19 45.5l147 147l-147 147q-19 18 -19 44.5t19 45.5t45.5 19t44.5 -19l147 -147l147 147q19 19 45.5 19t45 -19t18.5 -45.5t-19 -44.5l-146 -147z" />
    <glyph glyph-name="download" unicode="&#xe624;" 
d="M478 110q14 -14 34 -14t34 14l265 265q14 14 14 34t-14 34t-34 14t-34 -14l-183 -183v588q0 20 -14 34t-34 14t-34 -14t-14 -34v-588l-183 183q-14 14 -34 14t-34 -14t-14 -34t14 -34zM976 432q-20 0 -34 -14t-14 -34q0 -113 -55.5 -209t-151.5 -151.5t-209 -55.5
t-209 55.5t-151.5 151.5t-55.5 209q0 20 -14 34t-34 14t-34 -14t-14 -34q0 -104 40.5 -199t109 -163.5t163.5 -109t199 -40.5t199 40.5t163.5 109t109 163.5t40.5 199q0 20 -14 34t-34 14z" />
    <glyph glyph-name="share" unicode="&#xe625;" 
d="M247 535q20 0 34 14l183 184v-589q0 -20 14 -34t34 -14t34 14t14 34v589l184 -184q14 -14 33.5 -14t34 14t14.5 34t-15 34l-265 265q-13 14 -33.5 14t-34.5 -14l-265 -265q-14 -14 -14 -34t14 -34t34 -14zM976.5 432q-19.5 0 -34 -14t-14.5 -34q0 -113 -55.5 -208.5
t-151.5 -151.5t-209 -56t-208.5 56t-151.5 151.5t-56 208.5q0 20 -14 34t-34 14t-34 -14t-14 -34q0 -104 40.5 -198.5t109.5 -163.5t163.5 -109.5t198.5 -40.5t199 40.5t163.5 109.5t109.5 163.5t41 198.5q0 20 -14.5 34t-34 14z" />
    <glyph glyph-name="filter" unicode="&#xe626;" 
d="M644.5 -128q-19.5 0 -33.5 14t-14 34v485q0 21 15 35l227 213q25 24 25 58v89h-704v-89q0 -34 25 -58l228 -214q15 -14 15 -35v-484q0 -20 -14 -34t-34 -14t-34 14t-14 34v463l-212 200q-56 52 -56 128v137q0 20 14 34t34 14h800q20 0 34 -14t14 -34v-137q0 -76 -56 -128
l-211 -199v-464q0 -20 -14.5 -34t-34 -14z" />
    <glyph glyph-name="help" unicode="&#xe627;" 
d="M512 896q-104 0 -199 -40.5t-163.5 -109t-109 -163.5t-40.5 -199t40.5 -199t109 -163.5t163.5 -109t199 -40.5t199 40.5t163.5 109t109 163.5t40.5 199t-40.5 199t-109 163.5t-163.5 109t-199 40.5zM512 -32q-113 0 -209 55.5t-151.5 151.5t-55.5 209t55.5 209
t151.5 151.5t209 55.5t209 -55.5t151.5 -151.5t55.5 -209t-55.5 -209t-151.5 -151.5t-209 -55.5zM512 688q-73 0 -124.5 -51.5t-51.5 -124.5q0 -20 14 -34t34 -14t34 14t14 34q0 33 23.5 56.5t56.5 23.5t56.5 -23.5t23.5 -56.5q0 -23 -11.5 -42t-31.5 -29
q-40 -21 -62.5 -55.5t-22.5 -75.5q0 -20 14 -34t34 -14t34 14t14 34q0 29 33 46q44 22 69.5 64t25.5 92q0 73 -51.5 124.5t-124.5 51.5zM512 160zM448 159.5q0 -26.5 18.5 -45t45 -18.5t45.5 18.5t19 45t-19 45.5t-45.5 19t-45 -19t-18.5 -45.5z" />
    <glyph glyph-name="history" unicode="&#xe628;" 
d="M512 896q-186 0 -329 -120l-119 120v-320h320l-132 132q113 92 260 92q113 0 208.5 -55.5t151.5 -151.5t56 -209t-56 -209t-151.5 -151.5t-208.5 -55.5t-209 55.5t-151.5 151.5t-55.5 209q0 20 -14 34t-34 14t-34 -14t-14 -34q0 -104 40.5 -199t109 -163.5t163.5 -109
t199 -40.5t199 40.5t163.5 109t109 163.5t40.5 199t-40.5 199t-109 163.5t-163.5 109t-199 40.5zM612 550.5q-14 14.5 -34 14.5t-34 -14l-132 -133q-14 -14 -14 -34t14 -34l199 -199q14 -14 33.5 -14t34 14t14.5 34t-15 34l-164 165l98 99q14 14 14 33.5t-14 34z" />
    <glyph glyph-name="phone" unicode="&#xe62a;" 
d="M671 -128q-130 0 -222 92l-357 357q-92 92 -92 222t92 222l117 117q14 14 34 14t34 -14l214 -213q14 -15 14 -34.5t-14 -33.5l-88 -89l237 -237l88 88q15 14 34.5 14t33.5 -14l214 -214q14 -14 14 -33.5t-14 -34.5l-118 -117q-91 -92 -221 -92zM243 780l-83 -83
q-64 -64 -64 -154t64 -154l357 -357q62 -62 154 -62t154 62l83 83l-146 146l-65 -65q-23 -23 -57 -23t-56 23l-260 260q-24 23 -24 56.5t24 56.5l65 66z" />
    <glyph glyph-name="picture" unicode="&#xe62b;" 
d="M977 830h-929q-20 0 -34 -14t-14 -34v-796q0 -1 0.5 -3t0.5 -3q1 -6 2 -10q1 -3 4 -8t5.5 -7.5t7.5 -6.5l1.5 -1.5l2.5 -2.5h1.5h0.5q11 -6 22 -6v0v0v0h929q19 0 33.5 14t14.5 34v796q0 20 -14.5 34t-33.5 14zM928 734v-536l-322 225q-18 13 -38 8q-21 -5 -31 -23
l-23 -40l-173 122q-18 12 -38 7q-21 -4 -31 -23l-176 -307v567h832zM131 34l198 347l173 -122q18 -12 38 -7q21 5 32 23l22 39l334 -234v-46h-797zM777 583zM711 582.5q0 -27.5 19.5 -46.5t47 -19t47 19t19.5 46.5t-19.5 47t-47 19.5t-47 -19.5t-19.5 -47z" />
    <glyph glyph-name="refresh" unicode="&#xe62d;" 
d="M975 431q-20 0 -34 -14t-14 -34q0 -112 -55.5 -208t-151.5 -151.5t-208.5 -55.5t-208.5 55.5t-151.5 151.5t-55.5 208.5t55.5 208.5t151.5 151.5t208 55.5q146 0 260 -91l-132 -132h320v320l-120 -120q-142 119 -328 119q-103 0 -198 -40.5t-163.5 -109t-109 -163.5
t-40.5 -198.5t40.5 -198.5t109 -163.5t163.5 -109t198.5 -40.5t198.5 40.5t163.5 109t109 163.5t40.5 198q0 20 -14 34t-34 14z" />
    <glyph glyph-name="select" unicode="&#xe62e;" 
d="M384 -64v0q-17 0 -38 8.5t-34 20.5l-281 276q-31 30 -31 72.5t29.5 72.5t72 30.5t72.5 -28.5l200 -196l467 601q26 33 68 38.5t75.5 -20.5t39 -68.5t-20.5 -75.5l-538 -692q-28 -36 -74 -39h-7z" />
    <glyph glyph-name="semi-select" unicode="&#xe62f;" 
d="M922 282h-820q-42 0 -72 30t-30 72t30 72t72 30h820q43 0 73 -30t30 -72t-30 -72t-73 -30z" />
    <glyph glyph-name="service" unicode="&#xe630;" 
d="M666 336q78 72 78 176q0 99 -70.5 169.5t-169.5 70.5t-169.5 -70.5t-70.5 -169.5q0 -104 78 -176q-120 -49 -195 -157.5t-75 -242.5v-16q0 -20 14 -34t34 -14t34 14t14 34v16q0 91 45 168.5t122.5 122.5t168.5 45t168.5 -45t122.5 -122.5t45 -168.5v-16q0 -20 14 -34
t34 -14t34 14t14 34v16q0 134 -75 242.5t-195 157.5zM360 512q0 60 42 102t102 42t102 -42t42 -102t-42 -102t-102 -42t-102 42t-42 102zM920 544h-33q-8 97 -61 178t-138 127.5t-184 46.5q-104 0 -192.5 -51.5t-140 -140t-51.5 -192.5q0 -2 0.5 -6.5t0.5 -6.5
q-27 -20 -27 -51q0 -26 19 -45t45.5 -19t45 19t18.5 45q0 19 -10 35t-27 23q-1 1 -1 3v3q0 87 43 160.5t116.5 116.5t160.5 43t160.5 -43t116.5 -116.5t43 -160.5q0 -13 9.5 -22.5t22.5 -9.5h32v-64h-32q-13 0 -22.5 -9.5t-9.5 -22.5t9.5 -22.5t22.5 -9.5h64q13 0 22.5 9.5
t9.5 22.5v128q0 13 -9.5 22.5t-22.5 9.5z" />
    <glyph glyph-name="smile" unicode="&#xe631;" 
d="M512 896q-104 0 -199 -40.5t-163.5 -109t-109 -163.5t-40.5 -199t40.5 -199t109 -163.5t163.5 -109t199 -40.5t199 40.5t163.5 109t109 163.5t40.5 199t-40.5 199t-109 163.5t-163.5 109t-199 40.5zM512 -32q-113 0 -209 55.5t-151.5 151.5t-55.5 209t55.5 209
t151.5 151.5t209 55.5t209 -55.5t151.5 -151.5t55.5 -209t-55.5 -209t-151.5 -151.5t-209 -55.5zM711 517zM647 516.5q0 -26.5 18.5 -45t45 -18.5t45.5 18.5t19 45t-19 45.5t-45.5 19t-45 -19t-18.5 -45.5zM313 517zM249 516.5q0 -26.5 18.5 -45t45 -18.5t45.5 18.5t19 45
t-19 45.5t-45.5 19t-45 -19t-18.5 -45.5zM707 321.5q-17 10.5 -36.5 5.5t-29.5 -21q-21 -34 -55 -53.5t-74 -19.5t-74 19t-55 53q-10 17 -29.5 22t-36.5 -5.5t-21.5 -30t5.5 -36.5q34 -55 90 -86.5t121 -31.5t121 31.5t90 86.5q10 17 5.5 36.5t-21.5 30z" />
    <glyph glyph-name="sorting" unicode="&#xe632;" 
d="M121.5 225q15.5 12 35 10t32.5 -18l124 -158v789q0 20 14 34t34 14t34 -14t14 -34v-928q0 -15 -9 -27.5t-23 -17.5q-8 -3 -16 -3v0q-23 0 -38 18l-210 268q-12 15 -9.5 35t18 32zM647.5 893q14.5 5 29 1t24.5 -16l210 -268q12 -15 9.5 -35t-18 -32t-35 -10t-32.5 18
l-124 158v-789q0 -20 -14 -34t-34 -14t-34 14t-14 34v928q0 15 9 27.5t23.5 17.5z" />
  </font>
</defs>
</svg>
